<svg width="147" height="145" viewBox="0 0 147 145" fill="none" xmlns="http://www.w3.org/2000/svg">
<path d="M142.861 65.428C145.417 69.796 145.417 75.204 142.861 79.572L114.305 128.359C111.793 132.65 107.195 135.287 102.223 135.287L44.7774 135.287C39.8055 135.287 35.2065 132.65 32.695 128.359L4.13936 79.572C1.58267 75.204 1.58267 69.796 4.13936 65.428L32.695 16.6411C35.2065 12.3501 39.8055 9.71315 44.7775 9.71315L102.223 9.71316C107.195 9.71316 111.793 12.3501 114.305 16.6411L142.861 65.428Z" fill="#CCFF00"/>
<path d="M66.4397 72.2353H42.9374C42.5851 72.2353 42.4048 71.8129 42.6486 71.5585L79.8716 32.7187C80.121 32.4585 80.5603 32.635 80.5603 32.9955V72.2353H104.071C104.422 72.2353 104.603 72.6552 104.362 72.9102L67.1302 112.27C66.8817 112.533 66.4397 112.357 66.4397 111.995V72.2353Z" fill="black"/>
</svg>
